PathFileType	4	(X/Y/Z)	C:/Users/beibeiliu/ov580/test_trc\sequence.30_training_dense_right.trc
DataRate	CameraRate	NumFrames	NumMarkers	Units	OrigDataRate	OrigDataStartFrame	OrigNumFrames
120	120	19	19	mm	120	45	354
Frame#	Time	ThumbCMC			ThumbMCP			ThumbIP			ThumbTip			IndexMCP			IndexPIP			IndexTip			MiddleMCP			MiddlePIP			MiddleTip			RingMCP			RingPIP			RingTip			PinkyMCP			PinkyPIP			PinkyTip			BackHand1			BackHand2			BackHand3	
		X0	Y0	Z0	X1	Y1	Z1	X2	Y2	Z2	X3	Y3	Z3	X4	Y4	Z4	X5	Y5	Z5	X6	Y6	Z6	X7	Y7	Z7	X8	Y8	Z8	X9	Y9	Z9	X10	Y10	Z10	X11	Y11	Z11	X12	Y12	Z12	X13	Y13	Z13	X14	Y14	Z14	X15	Y15	Z15	X16	Y16	Z16	X17	Y17	Z17	X18	Y18	Z18	
44	0.366667	176.986	1.21625	59.2316	168.306	0.205335	36.0369	168.677	5.82311	12.8458	168.998	9.741	-7.99461	194.664	14.8766	-1.55744	194.651	-10.9242	-7.58308	193.986	-23.702	21.1661	211.821	6.74603	2.70311	210.16	-22.2837	5.46535	199.048	-21.3248	35.6078	229.48	4.97909	6.00366	219.277	-20.3326	7.59652	212.885	-20.7983	32.9079	245.818	20.2504	27.4123	257.048	26.4476	12.5965	261.833	35.8867	-0.834206	223.155	25.8857	55.5579	217.938	14.8612	82.6505	194.432	22.2765	65.1377	
45	0.375	177.275	0.047186	59.7468	168.464	0.948775	32.8562	167.49	6.54768	9.88222	168.561	9.58471	-11.1342	198.022	16.0078	2.53412	195.776	-12.3685	-6.93015	191.826	-24.4196	22.1815	212.707	6.75159	2.68042	209.12	-21.8786	2.19765	201.189	-22.6189	35.7071	229.226	6.96868	9.72659	221.415	-20.929	7.71354	212.053	-22.5005	33.1279	251.305	20.1236	27.9784	254.639	23.7231	14.7189	268.635	34.1617	2.95902	221.232	22.687	56.8441	220.76	15.9892	84.3596	193.192	23.2864	61.8183	
46	0.383333	174.999	-0.808266	59.6045	170.156	-0.0455174	34.4871	169.778	6.13555	7.92527	172.264	7.13675	-7.02408	195.73	13.2331	1.47333	200.285	-13.9572	-5.75449	195.27	-25.2018	24.1958	215.651	5.3335	4.14999	210.229	-24.3962	4.64711	202.343	-23.6795	35.6266	230.676	5.93968	9.56602	222.516	-21.9065	7.51234	212.708	-23.1694	33.2846	254.42	19.2358	28.5959	262.404	24.0559	12.9707	266.078	33.1454	1.42628	228.177	21.7454	54.4669	222.437	16.9233	80.2648	198.565	22.1686	63.1873	
47	0.391667	179.334	-2.75951	63.4912	168.125	-1.27433	33.8466	168.764	3.64861	10.9455	176.451	7.61978	-7.98911	195.888	12.6736	2.42905	202.779	-16.3311	-4.98847	192.715	-27.844	20.4782	219.227	2.26971	3.58924	211.391	-27.3049	7.28289	199.874	-23.6085	37.1537	233.426	4.3115	10.086	226.116	-25.1858	9.00958	214.402	-25.4202	32.0159	253.239	17.0621	28.8024	257.967	23.0464	13.5771	266.268	33.2954	3.13807	228.539	21.256	58.544	219.993	14.4535	83.739	197.885	19.882	66.5339	
48	0.4	177.278	-2.93424	62.3441	167.749	-2.84451	35.1762	171.325	3.80015	9.73603	174.492	4.591	-6.53572	200.646	9.1512	-1.34147	198.598	-15.0195	-7.35394	196.745	-28.6076	19.7639	219.983	1.28284	3.73104	211.686	-26.3295	5.27937	201.045	-24.8455	36.5249	232.437	3.39341	8.13327	227.196	-22.5792	5.75958	215.851	-24.9876	36.1546	253.397	14.841	30.9315	263.667	21.2002	17.3899	267.433	31.7218	4.05075	228.611	18.6732	59.8665	223.406	14.932	82.0168	198.64	20.1977	65.5569	
49	0.408333	180.245	-2.17183	61.4013	171.106	-0.298472	31.9175	170.551	1.30609	11.8362	176.361	5.01535	-8.71338	200.834	10.4828	2.5508	201.65	-18.9193	-2.90577	196.34	-27.4198	24.5676	216.281	4.89949	5.45906	215.25	-28.424	8.54508	203.757	-25.9976	35.7918	236.486	1.28025	8.6396	225.588	-22.3453	5.668	215.241	-25.9266	35.2137	250.68	15.5194	30.9711	263.28	20.8018	17.0576	267.551	31.8539	5.95423	228.824	20.0153	57.742	220.826	13.1707	80.7751	199.385	20.9331	66.2546	
50	0.416667	176.337	-2.26862	59.1713	168.051	-3.95688	32.6976	170.819	0.0834121	12.1539	174.862	4.52949	-10.3422	198.39	10.3841	-0.332163	200.246	-18.0997	-5.21408	196.177	-28.8271	21.8079	216.733	1.30495	2.15065	212.725	-25.4292	4.84635	207.504	-25.7304	37.9301	236.903	2.6565	9.31185	228.406	-22.2461	6.65448	217.806	-25.9908	35.8292	251.533	16.8522	29.9846	258.158	24.2497	15.4192	271.218	31.4417	6.01558	225.277	21.7723	55.0719	219.931	15.9255	80.767	199.478	19.1875	66.654	
51	0.425	174.662	-5.33043	62.1008	171.025	-2.3985	32.4323	173.408	-0.390436	12.5849	175.989	3.96383	-9.35007	199.816	12.0098	2.73207	203.249	-14.8576	-5.13531	194.813	-28.378	22.295	217.465	5.04619	5.96777	214.386	-25.0416	4.62804	202.037	-24.9198	37.4011	237.657	3.98882	11.2095	225.102	-23.3149	8.2969	217.752	-25.4154	35.9926	251.612	18.8036	29.2735	260.778	22.1256	18.881	270.074	35.9025	3.83105	225.245	22.2595	55.9359	222.686	14.8189	83.1012	196.433	20.6892	66.1058	
52	0.433333	175.479	-3.39045	61.1791	169.397	-4.41719	32.4859	175.019	0.787593	11.1943	173.793	2.5568	-8.46373	201.169	9.02823	0.244793	200.843	-18.1694	-4.39846	199.447	-26.3215	26.2825	219.594	3.17851	3.65945	213.344	-24.5412	4.93304	206.577	-24.28	37.9884	234.504	3.58066	8.36153	227.739	-21.6207	8.31683	217.572	-24.3539	35.9939	250.581	19.2254	30.6664	259.171	25.3567	16.6571	268.259	35.6997	5.02858	227.213	22.7332	57.967	217.775	13.6831	84.4436	198.848	19.6236	65.4226	
53	0.441667	176.878	-3.82247	61.5869	168.601	-4.73716	33.2027	172.353	-0.923084	12.6408	174.114	4.61732	-11.2292	200.497	12.0802	2.623	205.589	-13.6207	-5.47151	201.843	-26.5396	21.2746	217.034	5.71968	4.43167	216.057	-26.5776	7.99561	208.188	-24.3025	37.8192	237.617	3.65712	8.22228	230.714	-21.2216	8.22017	214.839	-21.9017	34.5331	253.217	19.1978	32.6415	262.717	24.1156	19.839	267.334	36.3874	6.30749	226.602	23.0045	60.3363	219.046	15.7035	83.5016	195.919	21.9345	65.0782	
54	0.45	180.517	-4.05357	61.8136	173.218	-5.13469	35.6036	174.185	1.56372	10.8044	174.027	2.63875	-6.71189	203.063	10.5943	-0.325774	204.387	-17.2077	-3.96217	200.808	-27.2071	21.1382	218.845	4.51821	3.3722	215.738	-25.7186	8.53964	205.114	-23.7631	35.3016	234.943	4.40204	7.98928	232.549	-20.8908	8.56628	218.313	-24.0971	32.5167	254.354	22.0399	29.5956	262.604	27.0592	16.138	273.332	38.9784	3.25031	224.916	23.3372	56.3791	220.985	15.5012	83.8528	196.912	23.4171	62.7437	
55	0.458333	181.684	-2.85182	60.8914	174.879	-1.72828	33.021	173.822	0.32616	12.3434	176.964	5.13292	-9.4528	200.678	11.5348	0.467737	206.152	-14.5787	-4.23733	201.403	-27.0288	19.8976	219.75	5.56936	4.24297	216.443	-23.5359	6.43073	206.479	-20.0093	38.4852	238.547	6.60331	11.0664	226.606	-20.2983	8.13831	220.204	-24.0961	35.0925	252.788	20.7168	31.7541	265.029	26.8848	17.4578	269.352	38.2787	4.33441	227.156	24.8583	57.0975	220.89	14.7776	83.8393	195.385	22.3971	62.7531	
56	0.466667	181.014	-2.10055	60.6645	173.692	-3.23152	32.307	175.638	2.36341	11.176	175.477	4.73091	-8.99237	203.225	11.7002	0.773363	203.666	-12.4928	-6.51924	199.214	-27.1162	21.3913	219.844	6.38912	4.53282	218.987	-22.2687	5.28965	206.595	-21.2248	35.8539	234.978	7.19342	10.6141	231.851	-21.347	8.2235	221.628	-24.1989	33.4829	251.498	21.2206	30.4285	264.424	26.1286	18.7436	274.18	35.1411	4.74274	228.18	22.2576	59.3628	220.876	15.9857	83.4255	199.39	22.0547	63.356	
57	0.475	179.774	-2.69595	61.2308	172.465	-1.22328	30.7859	173.071	3.19699	7.08615	175.992	4.15185	-6.79398	199.815	13.565	1.39459	205.166	-13.8777	-6.03185	200.554	-25.2944	22.3098	221.539	5.95841	5.11195	216.373	-24.2785	6.91497	208.164	-20.8683	36.3874	238.081	7.02986	11.3656	231.307	-19.4881	6.70527	216.57	-21.851	32.3208	255.888	22.1831	30.7152	260.081	27.1025	16.8091	272.564	38.6044	2.06511	224.559	23.3995	58.7535	221.969	17.0686	80.8194	199.91	22.4829	63.7466	
58	0.483333	180.635	-1.39991	59.4907	171.657	-4.43691	33.456	169.971	0.348084	11.104	176.038	4.26013	-8.88185	201.238	13.0394	2.42842	201.57	-15.4279	-5.80008	197.94	-25.7742	20.8504	220.122	7.43173	5.82414	218.74	-24.8764	8.61157	203.841	-19.3353	37.5242	233.528	7.75983	9.35881	231.607	-20.5265	9.02109	218.464	-23.21	31.4146	254.67	21.1402	31.2563	262.147	26.8137	16.8	271.808	37.7185	5.06476	227.608	21.1777	59.7621	221.313	14.8453	85.5624	198.748	21.5447	65.7038	
59	0.491667	181.43	-2.214	60.4815	169.1	-3.44276	32.9707	176.192	3.30078	10.6976	175.225	4.45255	-7.3975	197.643	13.1174	1.38149	203.683	-12.9957	-5.84628	201.639	-25.3246	22.0026	219.895	4.50708	3.63566	217.112	-24.5201	7.37869	206.729	-22.1793	36.4077	237.073	6.9402	9.05135	231.844	-20.8375	7.77655	221.098	-24.0296	32.8482	254.135	20.3184	32.885	262.752	25.4783	18.6965	268.646	34.9601	4.60281	226.563	23.1926	55.1458	220.787	15.7005	84.9001	199.346	22.1978	66.6258	
60	0.5	177.422	-3.37015	61.7659	173.849	-1.74977	34.5355	172.765	3.53632	11.4523	172.124	6.28934	-9.2156	201.205	13.3872	-0.461122	201.484	-15.4604	-4.4829	196.588	-25.4096	23.4797	217.462	8.54987	5.10808	213.655	-21.9299	4.35777	206.583	-18.4635	39.8818	237.426	5.19003	7.20205	231.015	-19.303	8.27363	220.037	-22.6063	34.3589	254.935	19.6114	32.7736	259.574	27.5549	13.8381	271.148	35.04	6.41466	227.951	24.2317	57.7013	221.433	16.7743	83.8649	199.232	24.2681	63.568	
61	0.508333	178.845	-0.993011	59.7351	168.656	-3.55901	34.518	170.492	3.93447	10.3359	174.877	7.9839	-6.133	197.515	16.0596	3.45915	204.31	-13.4965	-4.27906	195.836	-24.7805	19.7994	220.303	8.38155	7.59017	212.752	-22.7771	5.6151	203.375	-20.8391	35.8031	232.926	7.10088	9.02161	228.76	-17.4183	5.85118	218.784	-23.7247	32.805	251.984	22.4086	29.1365	259.893	25.5141	18.0704	269.125	39.4368	1.49481	227.932	22.756	56.7354	221.645	16.0103	83.0965	195.819	22.6974	64.6756	
62	0.516667	177.476	-1.39704	61.8526	171.226	-1.82409	35.2256	172.558	7.31604	9.88028	172.278	9.99167	-6.56863	200.135	16.6393	5.36662	204.191	-8.82785	-5.11304	194.999	-24.151	21.6602	219.645	6.27324	3.37429	212.818	-21.3018	5.04445	205.205	-19.7027	38.6071	235.992	7.77834	11.8477	224.69	-19.1562	7.90195	216.567	-21.058	36.8916	254.23	19.9052	32.5788	259.389	27.1528	14.9985	266.196	37.6402	-0.272376	226.457	21.533	60.4615	223.327	14.4264	86.7087	199.026	21.4769	64.6914	
